<?xml version="1.0" standalone="no"?>
<!DOCTYPE svg PUBLIC "-//W3C//DTD SVG 1.1//EN" "http://www.w3.org/Graphics/SVG/1.1/DTD/svg11.dtd" >
<svg xmlns="http://www.w3.org/2000/svg">
<metadata></metadata>
<defs>
<font id="montserrat_traityregular" horiz-adv-x="561" >
<font-face units-per-em="2048" ascent="1638" descent="-410" />
<missing-glyph horiz-adv-x="500" />
<glyph horiz-adv-x="0" />
<glyph horiz-adv-x="682" />
<glyph horiz-adv-x="0" />
<glyph horiz-adv-x="0" />
<glyph unicode="&#xd;" />
<glyph unicode=" " />
<glyph unicode="!" horiz-adv-x="604" d="M152 137q0 -63 45 -108t108 -45q62 0 107 45t45 108q0 61 -45.5 106.5t-106.5 45.5q-63 0 -108 -45t-45 -107zM160 1202l61 -739h164l61 739v264h-286v-264z" />
<glyph unicode="&#x22;" horiz-adv-x="765" d="M158 928h159v504h-159v-504zM449 928h159v504h-159v-504z" />
<glyph unicode="#" horiz-adv-x="1505" d="M88 328h211l-57 -328h229l57 328h301l-57 -328h227l58 328h243l46 225h-252l59 340h221l45 225h-229l63 348h-229l-59 -348h-301l59 348h-227l-60 -348h-227l-45 -225h233l-59 -340h-205zM565 553l62 340h301l-62 -340h-301z" />
<glyph unicode="$" horiz-adv-x="1267" d="M76 225q228 -196 504 -223v-149h131v147q210 11 336.5 124t126.5 292q0 174 -108 269.5t-349 152.5h-6v385q152 -21 293 -119l133 188q-201 139 -426 154v104h-131v-102q-199 -11 -323 -123.5t-124 -288.5q0 -173 103.5 -264.5t343.5 -148.5v-398q-181 27 -355 178z M383 1061q0 68 53 114.5t144 53.5v-355q-114 36 -155.5 76.5t-41.5 110.5zM711 219v369q122 -36 167.5 -78t45.5 -115q0 -72 -57 -118.5t-156 -57.5z" />
<glyph unicode="%" horiz-adv-x="1609" d="M90 1139q0 -136 89 -231t220 -95t220.5 96t89.5 232q0 137 -88 231t-220 94q-131 0 -221 -95.5t-90 -231.5zM141 0h265l1048 1432h-264zM281 1137q0 62 32.5 103.5t83.5 41.5q50 0 84.5 -42t34.5 -103q0 -64 -33 -103q-34 -43 -82 -43q-51 0 -85.5 42t-34.5 104zM903 309 q0 -136 89 -230.5t220 -94.5t220.5 95.5t89.5 231.5q0 138 -88 232t-220 94q-131 0 -221 -96t-90 -232zM1098 303q0 62 32.5 104t83.5 42q50 0 84.5 -42.5t34.5 -103.5q0 -63 -33 -102q-34 -43 -81 -43q-51 0 -86 42t-35 103z" />
<glyph unicode="&#x26;" horiz-adv-x="1421" d="M100 401q0 -127 65.5 -223t174.5 -145t244 -49q269 0 450 166l189 -187l153 143q-126 120 -209 203q71 113 121 248l-168 119q-34 -126 -98 -219q-109 115 -266 307q327 181 327 383q0 148 -111.5 233.5t-281.5 85.5q-172 0 -288.5 -91t-116.5 -249q0 -90 30.5 -150.5 t120.5 -162.5q-336 -182 -336 -412zM328 391q0 149 231 275q107 -131 328 -365q-143 -119 -275 -119q-128 0 -206 58t-78 151zM512 1141q0 57 54.5 100t123.5 43q73 0 124.5 -42.5t51.5 -119.5q0 -99 -231 -213q-73 88 -98 133t-25 99z" />
<glyph unicode="'" horiz-adv-x="475" d="M158 928h159v504h-159v-504z" />
<glyph unicode="(" horiz-adv-x="679" d="M102 639q0 -244 80 -503t187 -408h243q-121 169 -201.5 424.5t-80.5 486.5q0 238 82 491q84 259 200 420h-243q-107 -149 -187 -408t-80 -503z" />
<glyph unicode=")" horiz-adv-x="679" d="M68 -272h243q107 149 187 408t80 503t-80 503t-187 408h-243q121 -169 201.5 -424.5t80.5 -486.5q0 -236 -82 -489q-85 -262 -200 -422z" />
<glyph unicode="*" horiz-adv-x="884" d="M125 1001l70 -118l194 131l-16 -236h139l-16 234l194 -131l70 120l-211 105l211 102l-70 119l-192 -127l14 232h-139l14 -232l-192 129l-70 -121l209 -102z" />
<glyph unicode="+" horiz-adv-x="1163" d="M98 696h391v-389h185v389h391v193h-391v385h-185v-385h-391v-193z" />
<glyph unicode="," horiz-adv-x="575" d="M135 133q0 -94 84 -135l-76 -213h119l123 203q55 88 55 149t-45.5 105.5t-107.5 44.5t-107 -44.5t-45 -109.5z" />
<glyph unicode="-" horiz-adv-x="974" d="M147 504h680v215h-680v-215z" />
<glyph unicode="." horiz-adv-x="573" d="M135 137q0 -63 45 -108q42 -45 107 -45q63 0 108 45t45 108t-45 107.5t-108 44.5t-107.5 -44.5t-44.5 -107.5z" />
<glyph unicode="/" horiz-adv-x="1202" d="M57 -240h205l887 1901h-205z" />
<glyph unicode="0" horiz-adv-x="1409" d="M121 725q0 -338 145 -539q144 -202 439 -202q192 0 324 92t195.5 256.5t63.5 392.5t-63.5 392.5t-195.5 256.5t-324 92t-324.5 -92t-196 -256.5t-63.5 -392.5zM354 725q0 239 86 387q83 148 265 148q174 0 260 -142t86 -393t-86 -393t-260 -142q-117 0 -197 68t-117 186 t-37 281z" />
<glyph unicode="1" horiz-adv-x="780" d="M59 1217h291v-1217h230v1432h-521v-215z" />
<glyph unicode="2" horiz-adv-x="1206" d="M102 1182l195 -113q116 180 293 180q99 0 165 -60t66 -147q0 -82 -56 -163t-212 -238l-434 -436v-205h979v231h-649l335 342q154 158 211.5 258.5t57.5 210.5q0 127 -63 225t-164.5 148.5t-221.5 50.5q-174 0 -289 -68.5t-213 -215.5z" />
<glyph unicode="3" horiz-adv-x="1183" d="M80 131q224 -149 457 -149q237 0 383.5 126t146.5 343q0 169 -113 284t-305 121l346 387v189h-837v-215h518l-332 -386v-184q80 23 154 23q158 0 249 -65t91 -175q0 -107 -79.5 -167t-207.5 -60q-193 0 -369 123z" />
<glyph unicode="4" horiz-adv-x="1171" d="M76 360h614v-360h230v360h172v220h-172v262h-230v-262h-342l518 852h-264l-526 -859v-213z" />
<glyph unicode="5" horiz-adv-x="1185" d="M102 176q171 -192 461 -192q222 0 373 136.5t151 342.5q0 134 -67 237.5t-178 157t-246 53.5q-117 0 -205 -49v352h604v220h-823v-689l102 -110q122 67 261 67t226 -65.5t87 -179.5q0 -113 -80 -177.5t-190 -64.5q-91 0 -177.5 33.5t-124.5 64.5q-27 21 -45 39z" />
<glyph unicode="6" horiz-adv-x="1269" d="M123 688q0 -68 6 -132t22.5 -136t42.5 -133t69.5 -118t99 -97t135 -64t174.5 -24q216 0 354.5 130.5t138.5 340.5q0 209 -128.5 338t-323.5 129q-109 0 -206.5 -47t-154.5 -111q2 226 94.5 351.5t278.5 125.5q60 0 139 -32t127 -74l121 178q-189 145 -420 145 q-235 0 -393 -168q-176 -186 -176 -602zM391 463q0 108 83 177t208 69q120 0 195 -76t75 -187q0 -110 -79 -180.5t-201 -70.5q-120 0 -200.5 78t-80.5 190z" />
<glyph unicode="7" horiz-adv-x="1159" d="M94 1020h219v192h508l-592 -1212h267l606 1217v215h-1008v-412z" />
<glyph unicode="8" horiz-adv-x="1302" d="M117 418q0 -187 149 -310.5t385 -123.5q237 0 386 123.5t149 310.5q0 235 -207 368q154 127 154 293q0 164 -137.5 272.5t-344.5 108.5q-206 0 -344 -108q-137 -107 -137 -273t154 -293q-207 -133 -207 -368zM356 426q0 108 86.5 172t208.5 64t208.5 -64t86.5 -172 q0 -71 -45 -126t-111 -81t-139 -26q-106 0 -200 61q-95 59 -95 172zM393 1059q0 90 76 151.5t182 61.5t182 -61.5t76 -151.5q0 -91 -76 -154t-182 -63q-105 0 -180 63q-78 63 -78 154z" />
<glyph unicode="9" horiz-adv-x="1267" d="M104 989q0 -209 129 -339t324 -130q109 0 206.5 47t154.5 111q-2 -226 -94.5 -351.5t-278.5 -125.5q-60 0 -139 32t-127 74l-121 -178q189 -145 422 -145t391 168q176 186 176 602q0 68 -6 132t-22.5 136t-42.5 133t-69.5 118t-99 97t-135 64t-174.5 24 q-216 0 -355 -129.5t-139 -339.5zM324 995q0 110 78 181t198 71q119 0 199 -78t80 -188q0 -109 -82.5 -178.5t-206.5 -69.5q-122 0 -194 74.5t-72 187.5z" />
<glyph unicode=":" horiz-adv-x="600" d="M147 137q0 -62 46 -108q42 -45 106 -45q63 0 108.5 45t45.5 108t-45.5 107.5t-108.5 44.5t-107.5 -44.5t-44.5 -107.5zM147 639q0 -63 46 -109q42 -45 106 -45q63 0 108.5 45.5t45.5 108.5t-45.5 107.5t-108.5 44.5t-107.5 -44.5t-44.5 -107.5z" />
<glyph unicode=";" horiz-adv-x="606" d="M150 135q0 -93 83 -137l-75 -213h118l125 203q56 95 56 153q0 60 -46 104t-108 44q-64 0 -108.5 -44.5t-44.5 -109.5zM150 639q0 -64 45 -109q42 -45 106 -45q63 0 108.5 45.5t45.5 108.5t-45.5 107.5t-108.5 44.5t-107 -44.5t-44 -107.5z" />
<glyph unicode="&#x3c;" horiz-adv-x="1212" d="M92 684l965 -444v233l-721 334v22l721 326v234l-965 -447v-258z" />
<glyph unicode="=" horiz-adv-x="1277" d="M123 504h1032v192h-1032v-192zM123 889h1032v192h-1032v-192z" />
<glyph unicode="&#x3e;" horiz-adv-x="1212" d="M156 240l964 444v258l-964 447v-234l721 -326v-22l-721 -334v-233z" />
<glyph unicode="?" horiz-adv-x="1040" d="M74 1073h248q7 79 59.5 127.5t130.5 48.5q77 0 126.5 -50t49.5 -126q0 -74 -47 -127l-149 -149q-67 -67 -86 -107.5t-19 -120.5v-125h231v93q0 81 37 127q10 13 97 96q63 57 112 121q68 83 68 204q0 176 -113 276.5t-299 100.5q-185 0 -305.5 -104t-140.5 -285zM348 141 q0 -63 47.5 -107t112.5 -44q64 0 110 45t46 108q0 61 -46.5 105.5t-111.5 44.5q-64 0 -111 -45t-47 -107z" />
<glyph unicode="@" horiz-adv-x="1851" d="M104 545q0 -226 106 -410t291.5 -288.5t411.5 -104.5q114 0 232.5 38t189.5 99l-45 76q-132 -123 -377 -123q-201 0 -365.5 92.5t-258.5 256t-94 364.5q0 150 59 287.5t159 237.5t239.5 159t293.5 59q204 0 366.5 -104.5t251.5 -282.5t89 -395q0 -147 -51 -242.5 t-117 -95.5q-113 0 -113 143v715h-196v-137q-38 69 -122.5 117.5t-176.5 48.5q-206 0 -334.5 -146t-128.5 -366q0 -141 61.5 -256.5t163.5 -179.5t219 -64q253 0 367 264q4 -126 63 -195t160 -69q139 0 223 136t84 358q0 173 -63.5 329t-172.5 268t-260.5 178t-320.5 66 q-170 0 -324.5 -66t-266 -178t-177.5 -266t-66 -323zM621 553q0 130 76.5 216.5t199.5 86.5q124 0 202.5 -85t78.5 -218q0 -136 -76.5 -228t-202.5 -92q-125 0 -201.5 93t-76.5 227z" />
<glyph unicode="A" horiz-adv-x="1519" d="M0 0h258l143 326h717l144 -326h258l-631 1432h-258zM500 549l260 590l260 -590h-520z" />
<glyph unicode="B" horiz-adv-x="1445" d="M199 0h626q114 0 203.5 22.5t147.5 60t96 89.5t53.5 107.5t15.5 117.5q0 134 -77.5 225t-212.5 121q9 4 24 11t20 9.5t15 8t20 12.5t25 19q107 82 107 250q0 139 -99 250q-52 61 -157.5 95t-249.5 34h-557v-1432zM440 223v391h348q306 0 306 -190q0 -112 -67 -156.5 t-208 -44.5h-379zM440 838v370h310q135 0 197.5 -45t62.5 -147q0 -178 -262 -178h-308z" />
<glyph unicode="C" horiz-adv-x="1507" d="M106 721q0 -210 97.5 -378.5t270 -263.5t386.5 -95q323 0 551 252l-156 159q-101 -95 -191 -135.5t-212 -40.5q-133 0 -246 66.5t-180.5 185t-67.5 260.5q0 143 67.5 257.5t184.5 177.5t260 63q124 0 215 -39t193 -137l154 168q-224 245 -555 245q-219 0 -395.5 -97 t-276 -267.5t-99.5 -380.5z" />
<glyph unicode="D" horiz-adv-x="1601" d="M199 0h475q404 0 609.5 191t205.5 532q0 335 -208 522t-591 187h-491v-1432zM440 227v981h242q563 0 563 -491q0 -240 -137.5 -365t-398.5 -125h-269z" />
<glyph unicode="E" horiz-adv-x="1339" d="M199 0h1030v227h-789v383h686v215h-686v379h764v228h-1005v-1432z" />
<glyph unicode="F" horiz-adv-x="1236" d="M199 0h241v590h635v223h-635v393h711v226h-952v-1432z" />
<glyph unicode="G" horiz-adv-x="1550" d="M106 721q0 -157 57.5 -294.5t156.5 -234.5t237 -152.5t295 -55.5q379 0 580 223v489h-242v-393q-137 -88 -340 -88q-208 0 -350 141t-142 365t146 366t366 142q115 0 199.5 -28.5t167.5 -98.5l129 184q-204 180 -514 180q-152 0 -290 -57t-238 -155t-159 -237t-59 -296z " />
<glyph unicode="H" horiz-adv-x="1591" d="M199 0h241v586h711v-586h242v1432h-242v-621h-711v621h-241v-1432z" />
<glyph unicode="I" horiz-adv-x="638" d="M199 0h241v1432h-241v-1432z" />
<glyph unicode="J" horiz-adv-x="1128" d="M63 164q176 -176 426 -176q205 0 329 128t124 371v945h-696v-218h454v-739q0 -122 -64 -188t-163 -66q-133 0 -272 133z" />
<glyph unicode="K" horiz-adv-x="1441" d="M199 0h241v401l209 226l475 -627h287l-584 805l576 627h-307l-656 -699v699h-241v-1432z" />
<glyph unicode="L" horiz-adv-x="1159" d="M199 0h895v229h-654v1203h-241v-1432z" />
<glyph unicode="M" horiz-adv-x="2013" d="M199 0h241v1118l498 -993h135l500 993v-1118h242v1432h-375l-432 -900l-433 900h-376v-1432z" />
<glyph unicode="N" horiz-adv-x="1712" d="M199 0h241v1044l811 -1044h262v1432h-241v-1070l-832 1070h-241v-1432z" />
<glyph unicode="O" horiz-adv-x="1720" d="M106 727q0 -156 58.5 -293.5t158.5 -235.5t240 -155t297 -57q318 0 537 213q217 211 217 528q0 156 -58.5 293t-158.5 235t-240 154.5t-297 56.5t-297 -56.5t-240 -154.5t-158.5 -235t-58.5 -293zM354 727q0 142 66.5 261t183 188t256.5 69q213 0 361 -151 q145 -151 145 -367q0 -217 -146.5 -368.5t-359.5 -151.5t-359.5 151.5t-146.5 368.5z" />
<glyph unicode="P" horiz-adv-x="1400" d="M199 0h241v420h254q317 0 469 122t152 380q0 261 -150.5 385.5t-474.5 124.5h-491v-1432zM440 639v573h246q200 0 290.5 -62t90.5 -208q0 -157 -76.5 -230t-269.5 -73h-281z" />
<glyph unicode="Q" horiz-adv-x="1720" d="M106 727q0 -156 58.5 -293.5t158.5 -235.5t240 -155t297 -57l31 2q48 -126 168 -201.5t254 -75.5q227 0 407 189l-137 190q-38 -65 -112.5 -106t-153.5 -41q-105 0 -176 92q217 82 345 268t128 424q0 155 -58.5 292.5t-158.5 235t-240 154.5t-297 57t-297 -56.5 t-240 -154.5t-158.5 -235t-58.5 -293zM354 727q0 142 66.5 261t183 188t256.5 69q213 0 361 -151q145 -151 145 -367q0 -217 -146.5 -368.5t-359.5 -151.5t-359.5 151.5t-146.5 368.5z" />
<glyph unicode="R" horiz-adv-x="1490" d="M199 0h241v481h318l342 -481h307l-375 520q309 91 309 447q0 246 -142.5 355.5t-467.5 109.5h-532v-1432zM440 700v512h308q196 0 271 -52t75 -191q0 -145 -77 -207t-276 -62h-301z" />
<glyph unicode="S" horiz-adv-x="1290" d="M82 215q261 -231 596 -231q228 0 370 117t142 305q0 181 -106 278.5t-336 153.5q-220 52 -289 100q-68 47 -68 133q0 84 66 128t176 44q104 0 213 -37t172 -94l129 182q-97 81 -232.5 126.5t-273.5 45.5q-220 0 -361 -110t-141 -303q0 -200 127 -295q63 -51 144.5 -83 t240.5 -69q160 -39 223.5 -85t63.5 -128q0 -84 -68.5 -134t-185.5 -50q-233 0 -451 188z" />
<glyph unicode="T" horiz-adv-x="1236" d="M63 1210h435v-1210h241v1210h435v222h-1111v-222z" />
<glyph unicode="U" horiz-adv-x="1572" d="M180 629q0 -152 45 -274t125.5 -202.5t191.5 -123.5t244 -43q272 0 439.5 170.5t167.5 472.5v803h-242v-793q0 -196 -98.5 -311t-266.5 -115q-166 0 -266 115q-98 113 -98 311v793h-242v-803z" />
<glyph unicode="V" horiz-adv-x="1433" d="M6 1432l576 -1432h270l575 1432h-270l-440 -1070l-441 1070h-270z" />
<glyph unicode="W" horiz-adv-x="2146" d="M25 1432l499 -1432h240l301 981h16l301 -981h240l500 1432h-260l-361 -1031l-319 1031h-217l-320 -1031l-360 1031h-260z" />
<glyph unicode="X" horiz-adv-x="1378" d="M31 0h301l352 539h10l353 -539h301l-492 735l457 697h-299l-320 -484h-10l-319 484h-299l456 -697z" />
<glyph unicode="Y" horiz-adv-x="1277" d="M-16 1432l532 -867v-565h246v565l532 867h-264l-391 -652l-391 652h-264z" />
<glyph unicode="Z" horiz-adv-x="1382" d="M96 0h1182v223h-844v6l832 1014v189h-1143v-222h807v-6l-834 -1018v-186z" />
<glyph unicode="[" horiz-adv-x="727" d="M180 -287h463v172h-283v1493h283v172h-463v-1837z" />
<glyph unicode="\" horiz-adv-x="1069" d="M57 1550l746 -1550h205l-746 1550h-205z" />
<glyph unicode="]" horiz-adv-x="727" d="M84 -115v-172h463v1837h-463v-172h283v-1493h-283z" />
<glyph unicode="^" horiz-adv-x="806" d="M45 1520h199l157 170l158 -170h193l-248 319h-209z" />
<glyph unicode="_" horiz-adv-x="1478" d="M147 -166v-117h1184v117h-1184z" />
<glyph unicode="`" horiz-adv-x="1705" d="M647 1425l250 -196h209l-217 297z" />
<glyph unicode="a" horiz-adv-x="1376" d="M96 547q0 165 68 293t184.5 196t261.5 68q111 0 214 -44t169 -124l11 147h219v-1085h-230v164q-61 -88 -169 -134t-234 -46q-210 0 -352 157.5t-142 407.5zM315 539q0 -155 94.5 -255t231.5 -100q70 0 132 21t113 62.5t81 111.5t30 160q0 179 -98.5 271.5t-255.5 92.5 q-146 0 -237 -103t-91 -261z" />
<glyph unicode="b" horiz-adv-x="1376" d="M166 0h229v164q162 -180 371 -180q102 0 195.5 42t164 115t112.5 180t42 230t-41.5 228t-113.5 176t-169 111t-206 40q-219 0 -355 -207v621h-229v-1520zM391 543q0 154 94.5 258t231.5 104q138 0 236 -103.5t98 -258.5q0 -154 -99 -254.5t-237 -100.5 q-137 0 -230.5 100.5t-93.5 254.5z" />
<glyph unicode="c" horiz-adv-x="1179" d="M94 543q0 -122 44 -227.5t119.5 -177.5t177 -113t214.5 -41q259 0 459 200l-135 148q-136 -139 -287 -139q-153 0 -257.5 104.5t-104.5 255.5q0 148 104 244t250 96q144 0 285 -123l135 166q-170 170 -416 170q-163 0 -297 -70.5t-212.5 -200t-78.5 -292.5z" />
<glyph unicode="d" horiz-adv-x="1376" d="M96 549q0 -124 41.5 -230.5t112 -179t164 -114t196.5 -41.5q246 0 371 180v-164h229v1520h-229v-598q-132 184 -350 184q-109 0 -206.5 -40t-170.5 -111t-115.5 -176.5t-42.5 -229.5zM326 541q0 155 97.5 259.5t235.5 104.5q137 0 231.5 -104.5t94.5 -259.5 q0 -154 -93.5 -254.5t-229.5 -100.5q-138 0 -237 100.5t-99 254.5z" />
<glyph unicode="e" horiz-adv-x="1265" d="M96 547q0 -168 74.5 -297.5t199 -197.5t277.5 -68q283 0 459 182l-131 143q-108 -129 -311 -129q-86 0 -161 32.5t-123.5 93.5t-53.5 138h854v158q0 152 -72 268t-192.5 176t-268.5 60q-149 0 -274 -67.5t-201 -196.5t-76 -295zM326 625q0 126 97.5 205t229.5 79 q130 0 213.5 -75.5t83.5 -208.5h-624z" />
<glyph unicode="f" horiz-adv-x="790" d="M82 905h137v-905h230v905h286v185h-286v90q0 79 41 124.5t114 45.5q72 0 141 -72l95 162q-120 108 -267 108q-151 0 -252.5 -103t-101.5 -271v-84h-137v-185z" />
<glyph unicode="g" horiz-adv-x="1339" d="M98 578q0 -149 63 -270t177 -190t256 -69q117 0 213 56.5t147 154.5v-139q0 -179 -92 -265.5t-260 -86.5q-164 0 -323 120l-109 -174q200 -153 444 -153q255 0 407.5 148.5t152.5 428.5v951h-230v-162q-135 178 -350 178q-142 0 -256 -69t-177 -189.5t-63 -269.5z M324 588q0 138 84.5 236t220.5 98q138 0 226.5 -96.5t88.5 -237.5q0 -142 -87.5 -236t-225.5 -94q-137 0 -222 95.5t-85 234.5z" />
<glyph unicode="h" horiz-adv-x="1323" d="M166 0h229v590q0 146 85 227.5t210 81.5q250 0 250 -301v-598h229v668q0 210 -111.5 324t-299.5 114q-116 0 -215 -58t-148 -157v627h-229v-1518z" />
<glyph unicode="i" d="M137 1409q0 -59 43 -102t103 -43t102.5 42.5t42.5 102.5t-42.5 102.5t-102.5 42.5t-103 -42.5t-43 -102.5zM166 0h229v1090h-229v-1090z" />
<glyph unicode="j" d="M-225 -326q120 -108 268 -108q150 0 251 103.5t101 271.5v1149h-229v-1141q0 -81 -36.5 -125.5t-106.5 -44.5q-72 0 -142 67zM133 1409q0 -59 43 -102t103 -43t102.5 42.5t42.5 102.5t-42.5 102.5t-102.5 42.5t-103 -42.5t-43 -102.5z" />
<glyph unicode="k" horiz-adv-x="1189" d="M166 0h229v309l166 168l324 -477h278l-444 657l414 433h-295l-443 -463v893h-229v-1520z" />
<glyph unicode="l" d="M166 0h229v1520h-229v-1520z" />
<glyph unicode="m" horiz-adv-x="2076" d="M166 0h229v590q0 146 85 227.5t210 81.5q119 0 174.5 -73t55.5 -228v-598h229v606q4 137 88.5 215t206.5 78q250 0 250 -301v-598h229v668q0 210 -111.5 324t-300.5 114q-238 0 -403 -213q-92 213 -350 213q-116 0 -215 -58t-148 -157v199h-229v-1090z" />
<glyph unicode="n" horiz-adv-x="1323" d="M166 0h229v590q0 146 85 227.5t210 81.5q250 0 250 -301v-598h229v668q0 210 -111.5 324t-299.5 114q-113 0 -210.5 -57.5t-152.5 -157.5v199h-229v-1090z" />
<glyph unicode="o" horiz-adv-x="1335" d="M94 545q0 -155 74.5 -283.5t206.5 -203t293 -74.5q246 0 409 163q164 164 164 398q0 116 -44 219.5t-119.5 178.5t-182 119t-227.5 44q-161 0 -293 -74.5t-206.5 -203t-74.5 -283.5zM324 545q0 157 97 256.5t247 99.5t247 -99.5t97 -256.5t-97 -257t-247 -100 q-152 0 -246 101q-98 98 -98 256z" />
<glyph unicode="p" horiz-adv-x="1376" d="M166 -397h229v561q162 -180 371 -180q102 0 195.5 42t164 115t112.5 180t42 230t-41.5 228t-113.5 176t-169 111t-206 40q-219 0 -355 -207v191h-229v-1487zM391 543q0 154 94.5 258t231.5 104q138 0 236 -103.5t98 -258.5q0 -154 -99 -254.5t-237 -100.5 q-137 0 -230.5 100.5t-93.5 254.5z" />
<glyph unicode="q" horiz-adv-x="1376" d="M96 551q0 -123 42 -230t113 -180t165 -115t196 -42q207 0 369 180v-561h229v1487h-229v-191q-136 207 -354 207q-109 0 -206.5 -40t-169 -111t-113.5 -176t-42 -228zM326 543q0 155 97.5 258.5t235.5 103.5q137 0 231.5 -104t94.5 -258t-93.5 -254.5t-229.5 -100.5 q-138 0 -237 100.5t-99 254.5z" />
<glyph unicode="r" horiz-adv-x="813" d="M166 0h229v467q0 190 87.5 298.5t254.5 108.5h11v232q-104 -1 -200.5 -66.5t-152.5 -169.5v220h-229v-1090z" />
<glyph unicode="s" horiz-adv-x="1036" d="M68 147q97 -77 224.5 -120t248.5 -43q178 0 289.5 94t111.5 248q0 156 -111 229q-49 33 -102 57q-90 37 -217 70q-34 9 -51.5 14t-42 15t-36 20t-20 26.5t-8.5 37.5q0 58 50 88t135 30q157 0 288 -88l86 170q-170 111 -356 111q-190 0 -307 -91.5t-117 -242.5 q0 -216 340 -307l9 -3q10 -3 16 -5q217 -64 217 -148q0 -56 -45.5 -91.5t-122.5 -35.5q-179 0 -369 144z" />
<glyph unicode="t" horiz-adv-x="856" d="M82 905h137v-547q0 -168 101.5 -271t252.5 -103q147 0 267 108l-95 162q-69 -72 -141 -72q-73 0 -114 45.5t-41 124.5v553h286v185h-286v342h-230v-342h-137v-185z" />
<glyph unicode="u" horiz-adv-x="1323" d="M154 422q0 -210 111.5 -324t299.5 -114q113 0 210.5 57.5t152.5 157.5v-199h229v1090h-229v-590q0 -146 -85 -228t-210 -82q-250 0 -250 302v598h-229v-668z" />
<glyph unicode="v" horiz-adv-x="1171" d="M16 1090l439 -1090h262l438 1090h-237l-332 -824l-332 824h-238z" />
<glyph unicode="w" horiz-adv-x="1867" d="M37 1090l377 -1090h262l258 745l258 -745h262l377 1090h-238l-270 -824l-270 824h-238l-270 -824l-271 824h-237z" />
<glyph unicode="x" horiz-adv-x="1142" d="M39 0h268l254 362l260 -362h283l-397 557l380 533h-272l-242 -359l-233 359h-281l367 -535z" />
<glyph unicode="y" horiz-adv-x="1175" d="M18 1090q441 -1094 441 -1121q0 -69 -49 -122.5t-123 -53.5q-79 0 -150 68l-104 -187q120 -108 270 -108q106 0 194.5 61.5t135.5 167.5l528 1295h-246l-325 -803l-326 803h-246z" />
<glyph unicode="z" horiz-adv-x="1107" d="M90 0h926v199h-645l612 680v206h-852v-196h555l-596 -666v-223z" />
<glyph unicode="{" horiz-adv-x="688" d="M82 537h49q55 0 78.5 -28t23.5 -95v-443q0 -270 279 -270h70v190q-84 0 -114 20t-30 75v481q0 145 -135 166q135 24 135 168v444q0 117 127 117q13 0 17 -2v190h-70q-279 0 -279 -270v-426q0 -69 -24 -98t-78 -29h-49v-190z" />
<glyph unicode="|" horiz-adv-x="526" d="M178 -313h170v1915h-170v-1915z" />
<glyph unicode="}" horiz-adv-x="688" d="M106 -109v-190h70q279 0 279 270v443q0 67 23.5 95t78.5 28h49v190h-49q-54 0 -78 29t-24 98v426q0 270 -279 270h-70v-190l37 4h7q38 0 69 -30.5t31 -88.5v-444q0 -144 135 -168q-135 -21 -135 -166v-481q0 -55 -30 -75t-114 -20z" />
<glyph unicode="~" horiz-adv-x="1157" d="M102 676l179 -51q15 133 96 133q48 0 151 -53q162 -87 248 -87q119 0 193 75.5t86 215.5l-181 52q-15 -134 -96 -134q-46 0 -151 54q-159 84 -248 84q-119 0 -192 -74.5t-85 -214.5z" />
<glyph unicode="&#xa0;" />
<glyph unicode="&#xa1;" horiz-adv-x="602" d="M150 1309q0 -63 45 -108.5t108 -45.5q62 0 107 45.5t45 108.5q0 61 -45 106t-107 45q-63 0 -108 -44.5t-45 -106.5zM158 -16h284v258l-59 739h-164l-61 -739v-258z" />
<glyph unicode="&#xa2;" horiz-adv-x="1200" d="M100 541q0 -224 140 -376.5t352 -176.5v-238h131v238q222 21 391 196l-135 148q-119 -122 -256 -137v694q121 -12 246 -119l135 166q-150 150 -381 168v239h-131v-243q-214 -30 -353 -182.5t-139 -376.5zM330 551q0 124 73.5 213.5t188.5 116.5v-676q-118 31 -190 126 t-72 220z" />
<glyph unicode="&#xa3;" horiz-adv-x="1261" d="M121 588h176v-373h-168v-215h1020v215h-610v373h342v200h-342v269q0 119 61.5 178t165.5 59q134 0 217 -139l170 135q-134 230 -403 230q-211 0 -332 -118.5t-121 -357.5v-256h-176v-200z" />
<glyph unicode="&#xa4;" horiz-adv-x="1546" d="M123 127l143 -143l193 190q139 -86 313 -86t313 86l195 -190l143 143l-188 186q111 150 111 334q0 183 -105 330l182 182l-145 144l-184 -185q-145 92 -324 92q-177 0 -317 -90l-185 183l-145 -144l180 -180q-104 -143 -104 -332t108 -336zM440 649q0 151 94 246.5 t238 95.5t238 -95.5t94 -246.5t-94 -247.5t-238 -96.5q-141 0 -237 96q-95 95 -95 248z" />
<glyph unicode="&#xa5;" horiz-adv-x="1464" d="M72 1432l411 -695h-274v-180h381l8 -12v-111h-389v-180h389v-254h256v254h387v180h-385v111l6 12h379v180h-268l426 695h-260l-402 -658h-14l-387 658h-264z" />
<glyph unicode="&#xa6;" horiz-adv-x="565" d="M186 -49h193v670h-193v-670zM186 881h193v669h-193v-669z" />
<glyph unicode="&#xa7;" horiz-adv-x="1249" d="M104 641q0 -78 27.5 -138t85.5 -104.5t131 -77t180 -63.5q198 -58 269 -102q67 -43 67 -109q0 -139 -219 -139q-194 0 -393 166l-131 -156q227 -201 518 -201q197 0 318.5 98t121.5 242q0 79 -49 149.5t-139 104.5q134 31 202 112t68 189q0 144 -100 226t-318 135 q-211 49 -270 90t-59 111q0 68 54.5 110.5t147.5 42.5q177 0 326 -113l117 164q-106 76 -206 109t-232 33q-187 0 -306.5 -101t-119.5 -264q0 -165 165 -229q-118 -23 -187 -103t-69 -182zM297 649q0 72 65.5 112t180.5 40t260 -43q168 -53 168 -174q0 -67 -71 -112.5 t-177 -45.5q-186 0 -306 63t-120 160z" />
<glyph unicode="&#xa8;" horiz-adv-x="1249" d="M340 1358q0 -53 36.5 -90t88.5 -37t89.5 38t37.5 91q0 52 -36 87.5t-89 35.5t-90 -36.5t-37 -88.5zM719 1358q0 -52 37.5 -89.5t89.5 -37.5t88.5 38t36.5 91q0 52 -36 87.5t-89 35.5t-90 -36.5t-37 -88.5z" />
<glyph unicode="&#xa9;" horiz-adv-x="1703" d="M111 715q0 -201 98 -371t268.5 -269.5t372.5 -99.5q152 0 289.5 59.5t237 159.5t158 237.5t58.5 287.5q0 305 -217 522t-524 217q-151 0 -288.5 -59t-236.5 -159t-157.5 -237.5t-58.5 -287.5zM207 715q0 132 51 252.5t137.5 208t207 139t253.5 51.5t253.5 -51.5 t206.5 -138.5t136.5 -207t50.5 -252q0 -267 -188 -461q-190 -193 -463 -193q-178 0 -326.5 87.5t-233.5 237t-85 327.5zM461 719q0 -181 117.5 -293.5t298.5 -112.5q177 0 317 146l-98 106q-93 -100 -205 -100t-189 76t-77 186q0 106 75.5 176t180.5 70q99 0 209 -90l98 121 q-116 122 -299 122q-185 0 -306.5 -113t-121.5 -294z" />
<glyph unicode="&#xaa;" horiz-adv-x="720" d="M121 1110q0 -74 52.5 -119t143.5 -45q90 0 154 76v-68h96v326q0 186 -215 186q-105 0 -194 -71l47 -68q74 51 145 51q113 0 113 -100v-18h-139q-203 0 -203 -150zM227 1112q0 74 115 74h119v-43q0 -46 -37 -76.5t-88 -30.5t-80 20t-29 56z" />
<glyph unicode="&#xab;" horiz-adv-x="1120" d="M115 492l243 -361h222l-236 361l236 360h-222zM520 492l244 -361h221l-235 361l235 360h-221z" />
<glyph unicode="&#xac;" horiz-adv-x="1695" d="M137 731h1202v-551h168v731h-1370v-180z" />
<glyph unicode="&#xad;" horiz-adv-x="974" d="M147 504h680v215h-680v-215z" />
<glyph unicode="&#xae;" horiz-adv-x="1703" d="M111 715q0 -201 98 -371t268.5 -269.5t372.5 -99.5q152 0 289.5 59.5t237 159.5t158 237.5t58.5 287.5q0 305 -217 522t-524 217q-151 0 -288.5 -59t-236.5 -159t-157.5 -237.5t-58.5 -287.5zM207 715q0 132 51 252.5t137.5 208t207 139t253.5 51.5t253.5 -51.5 t206.5 -138.5t136.5 -207t50.5 -252q0 -267 -188 -461q-190 -193 -463 -193q-178 0 -326.5 87.5t-233.5 237t-85 327.5zM569 322h140v268h176l192 -268h172l-213 288q174 52 174 250q0 138 -79 200t-261 62h-301v-800zM709 713v288h170q109 0 151.5 -30.5t42.5 -108.5 q0 -81 -43 -115t-156 -34h-165z" />
<glyph unicode="&#xaf;" horiz-adv-x="868" d="M121 1229h629v178h-629v-178z" />
<glyph unicode="&#xb0;" horiz-adv-x="851" d="M111 1149q0 -130 92 -221.5t223 -91.5t223 91.5t92 221.5q0 131 -92.5 223t-222.5 92q-131 0 -223 -92t-92 -223zM217 1149q0 86 60.5 146.5t148.5 60.5q86 0 146.5 -60.5t60.5 -146.5t-60.5 -147.5t-146.5 -61.5q-87 0 -148 61t-61 148z" />
<glyph unicode="&#xb1;" horiz-adv-x="1163" d="M98 279h967v172h-967v-172zM98 842h391v-277h185v277h391v192h-391v273h-185v-273h-391v-192z" />
<glyph unicode="&#xb2;" horiz-adv-x="858" d="M135 1300l113 -65q67 104 172 104q59 0 97 -34t38 -84q0 -49 -33.5 -97t-124.5 -139l-252 -256v-119h572v135h-379l194 199q90 93 124 152.5t34 122.5q0 112 -77 179.5t-191 67.5q-179 0 -287 -166z" />
<glyph unicode="&#xb3;" horiz-adv-x="811" d="M111 662q133 -89 270 -89q138 0 225.5 74t87.5 187q0 115 -65 185t-180 71l204 229v113h-495v-127h305l-197 -230v-108q43 14 117 14q73 0 124.5 -39.5t51.5 -103.5t-47 -98.5t-123 -34.5q-114 0 -217 71z" />
<glyph unicode="&#xb4;" horiz-adv-x="1705" d="M692 1286h209l250 197l-242 100z" />
<glyph unicode="&#xb6;" horiz-adv-x="1374" d="M72 1139q0 -133 80 -254q43 -63 127.5 -101.5t193.5 -38.5q36 0 94 7v-981h185v1585h229v-1585h190v1779h-612q-120 0 -214 -31.5t-153 -87.5t-89.5 -130t-30.5 -162z" />
<glyph unicode="&#xb7;" horiz-adv-x="595" d="M145 653q0 -63 45 -108q42 -45 107 -45q63 0 108.5 45t45.5 108t-45.5 107.5t-108.5 44.5t-107.5 -44.5t-44.5 -107.5z" />
<glyph unicode="&#xb8;" horiz-adv-x="575" d="M86 -389q71 -45 172 -45q95 0 159 57.5t64 136.5q0 144 -143 162l41 78h-146l-73 -139q27 10 61 10t58 -25.5t24 -58.5q0 -34 -23 -57t-61 -23q-39 0 -80 21z" />
<glyph unicode="&#xb9;" horiz-adv-x="548" d="M84 1307h170v-713h133v838h-303v-125z" />
<glyph unicode="&#xba;" horiz-adv-x="774" d="M115 1200q0 -113 77.5 -189.5t194.5 -76.5t195 78q77 77 77 188q0 113 -77.5 189.5t-194.5 76.5t-194.5 -76.5t-77.5 -189.5zM223 1202q0 74 46 121t118 47t118 -47t46 -121q0 -75 -46 -122.5t-118 -47.5q-70 0 -117 47t-47 123z" />
<glyph unicode="&#xbb;" horiz-adv-x="1120" d="M135 131h221l244 361l-244 360h-221l236 -360zM541 131h221l244 361l-244 360h-221l235 -360z" />
<glyph unicode="&#xbc;" horiz-adv-x="1767" d="M72 1307h170v-713h133v838h-303v-125zM446 -16h148l764 1566h-148zM1094 211h358v-211h133v211h103v129h-103v154h-133v-154h-201l303 498h-155l-305 -502v-125z" />
<glyph unicode="&#xbd;" horiz-adv-x="1900" d="M72 1307h170v-713h133v838h-303v-125zM512 -16h147l764 1566h-147zM1231 690l110 -65q70 104 172 104q59 0 97.5 -34.5t38.5 -84.5q0 -48 -32.5 -95.5t-123.5 -139.5l-254 -256v-119h571v135h-378l196 199q90 91 124 150.5t34 123.5q0 112 -78 180t-192 68 q-177 0 -285 -166z" />
<glyph unicode="&#xbe;" horiz-adv-x="1845" d="M82 662q133 -89 270 -89q139 0 226.5 74t87.5 187q0 114 -65.5 184.5t-180.5 71.5l205 229v113h-496v-127h305l-196 -230v-108q43 14 116 14t124.5 -39.5t51.5 -103.5t-47 -98.5t-123 -34.5q-114 0 -217 71zM530 -16h148l764 1566h-148zM1178 211h358v-211h133v211h103 v129h-103v154h-133v-154h-201l303 498h-155l-305 -502v-125z" />
<glyph unicode="&#xbf;" horiz-adv-x="1040" d="M109 362q0 -176 112.5 -276t298.5 -100q185 0 306 104t141 285h-248q-7 -79 -60 -127.5t-131 -48.5q-77 0 -126.5 50t-49.5 126q0 74 47 127l150 149q67 67 85.5 107t18.5 121v125h-231v-93q0 -82 -37 -125q-22 -30 -94 -96q-7 -7 -23.5 -22t-22.5 -21.5t-18.5 -19.5 t-24 -27t-26.5 -33q-67 -82 -67 -205zM377 1307q0 -63 47.5 -107.5t112.5 -44.5q64 0 109.5 45.5t45.5 108.5q0 61 -46 105t-111 44q-64 0 -111 -44.5t-47 -106.5z" />
<glyph unicode="&#xc0;" horiz-adv-x="1495" d="M0 0h258l139 326h686l146 -326h266l-631 1432h-233zM401 1747l250 -197h209l-217 297zM498 549l243 551l246 -551h-489z" />
<glyph unicode="&#xc1;" horiz-adv-x="1519" d="M0 0h258l143 326h717l144 -326h258l-631 1432h-258zM500 549l260 590l260 -590h-520zM662 1552h208l250 197l-241 100z" />
<glyph unicode="&#xc2;" horiz-adv-x="1495" d="M0 0h258l139 326h686l146 -326h266l-631 1432h-233zM383 1550h199l157 115l158 -115h199l-250 275h-213zM498 549l243 551l246 -551h-489z" />
<glyph unicode="&#xc3;" horiz-adv-x="1495" d="M0 0h258l139 326h686l146 -326h266l-631 1432h-233zM406 1550h151q3 90 70 90q27 0 123 -47q94 -49 147 -49q182 0 188 266h-153q0 -90 -62 -90q-31 0 -129 49q-102 48 -153 48q-85 0 -133.5 -73.5t-48.5 -193.5zM498 549l243 551l246 -551h-489z" />
<glyph unicode="&#xc4;" horiz-adv-x="1495" d="M0 0h258l139 326h686l146 -326h266l-631 1432h-233zM432 1669q0 -53 36 -90t89 -37t90 38t37 91q0 52 -36.5 87.5t-90.5 35.5t-89.5 -36t-35.5 -89zM498 549l243 551l246 -551h-489zM811 1669q0 -52 37 -89.5t88 -37.5t89 38.5t38 90.5t-36 87.5t-89 35.5t-90 -36.5 t-37 -88.5z" />
<glyph unicode="&#xc5;" horiz-adv-x="1495" d="M0 0h258l139 326h686l146 -326h266l-621 1405q97 66 97 164q0 95 -66.5 160t-156.5 65t-156 -65t-66 -160q0 -97 92 -162zM498 549l243 551l246 -551h-489zM635 1581q0 50 32 81.5t83 31.5q49 0 79.5 -31.5t30.5 -81.5q0 -51 -30.5 -83t-79.5 -32q-51 0 -83 32t-32 83z " />
<glyph unicode="&#xc6;" horiz-adv-x="2129" d="M-23 0h297l175 326h518v-326h1052v225h-788v377h686v211h-686v393h764v226h-1268zM565 557l342 649h60v-649h-402z" />
<glyph unicode="&#xc7;" horiz-adv-x="1507" d="M106 735q0 -302 178.5 -505.5t463.5 -239.5l-68 -129q27 10 61 10t58 -25.5t24 -58.5q0 -34 -23 -57t-61 -23q-39 0 -80 21l-53 -117q71 -45 172 -45q95 0 159 57.5t64 136.5q0 144 -143 162l33 64q308 12 520 250l-156 159q-101 -95 -191 -135.5t-212 -40.5 q-133 0 -246 66.5t-180.5 185t-67.5 260.5q0 143 67.5 257.5t184.5 177.5t260 63q124 0 215 -39t193 -137l154 168q-224 245 -555 245q-163 0 -307 -57t-245.5 -155t-160 -233t-58.5 -286z" />
<glyph unicode="&#xc8;" horiz-adv-x="1339" d="M199 0h1030v227h-789v383h686v215h-686v379h764v228h-1005v-1432zM403 1747l250 -197h209l-217 297z" />
<glyph unicode="&#xc9;" horiz-adv-x="1339" d="M199 0h1030v227h-789v383h686v215h-686v379h764v228h-1005v-1432zM602 1550h209l250 197l-242 100z" />
<glyph unicode="&#xca;" horiz-adv-x="1339" d="M199 0h1030v227h-789v383h686v215h-686v379h764v228h-1005v-1432zM346 1550h199l157 115l158 -115h199l-250 275h-213z" />
<glyph unicode="&#xcb;" horiz-adv-x="1339" d="M199 0h1030v227h-789v383h686v215h-686v379h764v228h-1005v-1432zM389 1669q0 -53 36.5 -90t88.5 -37t89.5 38t37.5 91q0 52 -36 87.5t-89 35.5t-90 -36.5t-37 -88.5zM768 1669q0 -53 37 -90t90 -37q52 0 88.5 38t36.5 91q0 52 -36 87.5t-89 35.5t-90 -36.5t-37 -88.5z " />
<glyph unicode="&#xcc;" horiz-adv-x="638" d="M-31 1747l250 -197h209l-217 297zM199 0h241v1432h-241v-1432z" />
<glyph unicode="&#xcd;" horiz-adv-x="638" d="M199 0h241v1432h-241v-1432zM211 1550h209l250 197l-242 100z" />
<glyph unicode="&#xce;" horiz-adv-x="638" d="M-14 1550h198l158 115l158 -115h198l-249 275h-213zM199 0h241v1432h-241v-1432z" />
<glyph unicode="&#xcf;" horiz-adv-x="638" d="M6 1669q0 -53 36 -90t89 -37t90 38t37 91q0 52 -36.5 87.5t-90.5 35.5t-89.5 -36t-35.5 -89zM199 0h241v1432h-241v-1432zM385 1669q0 -52 37 -89.5t88 -37.5t89 38.5t38 90.5t-36 87.5t-89 35.5t-90 -36.5t-37 -88.5z" />
<glyph unicode="&#xd0;" horiz-adv-x="1617" d="M53 602h162v-602h475q404 0 609.5 191t205.5 532q0 335 -207.5 522t-590.5 187h-492v-615h-162v-215zM457 227v375h512v215h-512v391h241q564 0 564 -491q0 -240 -138 -365t-399 -125h-268z" />
<glyph unicode="&#xd1;" horiz-adv-x="1712" d="M199 0h241v1044l811 -1044h262v1432h-241v-1070l-832 1070h-241v-1432zM510 1550h152q3 90 69 90q27 0 123 -47q94 -49 147 -49q183 0 189 266h-154q0 -90 -61 -90q-31 0 -129 49q-102 48 -154 48q-85 0 -133.5 -73.5t-48.5 -193.5z" />
<glyph unicode="&#xd2;" horiz-adv-x="1720" d="M106 727q0 -156 58.5 -293.5t158.5 -235.5t240 -155t297 -57q318 0 537 213q217 211 217 528q0 156 -58.5 293t-158.5 235t-240 154.5t-297 56.5t-297 -56.5t-240 -154.5t-158.5 -235t-58.5 -293zM354 727q0 142 66.5 261t183 188t256.5 69q213 0 361 -151 q145 -151 145 -367q0 -217 -146.5 -368.5t-359.5 -151.5t-359.5 151.5t-146.5 368.5zM557 1747l250 -197h209l-217 297z" />
<glyph unicode="&#xd3;" horiz-adv-x="1720" d="M106 727q0 -156 58.5 -293.5t158.5 -235.5t240 -155t297 -57q318 0 537 213q217 211 217 528q0 156 -58.5 293t-158.5 235t-240 154.5t-297 56.5t-297 -56.5t-240 -154.5t-158.5 -235t-58.5 -293zM354 727q0 142 66.5 261t183 188t256.5 69q213 0 361 -151 q145 -151 145 -367q0 -217 -146.5 -368.5t-359.5 -151.5t-359.5 151.5t-146.5 368.5zM688 1550h209l250 197l-242 100z" />
<glyph unicode="&#xd4;" horiz-adv-x="1720" d="M106 727q0 -156 58.5 -293.5t158.5 -235.5t240 -155t297 -57q318 0 537 213q217 211 217 528q0 156 -58.5 293t-158.5 235t-240 154.5t-297 56.5t-297 -56.5t-240 -154.5t-158.5 -235t-58.5 -293zM354 727q0 142 66.5 261t183 188t256.5 69q213 0 361 -151 q145 -151 145 -367q0 -217 -146.5 -368.5t-359.5 -151.5t-359.5 151.5t-146.5 368.5zM500 1550h198l158 115l158 -115h198l-249 275h-213z" />
<glyph unicode="&#xd5;" horiz-adv-x="1720" d="M106 727q0 -156 58.5 -293.5t158.5 -235.5t240 -155t297 -57q318 0 537 213q217 211 217 528q0 156 -58.5 293t-158.5 235t-240 154.5t-297 56.5t-297 -56.5t-240 -154.5t-158.5 -235t-58.5 -293zM354 727q0 142 66.5 261t183 188t256.5 69q213 0 361 -151 q145 -151 145 -367q0 -217 -146.5 -368.5t-359.5 -151.5t-359.5 151.5t-146.5 368.5zM516 1550h152q3 90 69 90q27 0 123 -47q94 -49 148 -49q182 0 188 266h-154q0 -90 -61 -90q-31 0 -129 49q-102 48 -154 48q-85 0 -133.5 -73.5t-48.5 -193.5z" />
<glyph unicode="&#xd6;" horiz-adv-x="1720" d="M106 727q0 -156 58.5 -293.5t158.5 -235.5t240 -155t297 -57q318 0 537 213q217 211 217 528q0 156 -58.5 293t-158.5 235t-240 154.5t-297 56.5t-297 -56.5t-240 -154.5t-158.5 -235t-58.5 -293zM354 727q0 142 66.5 261t183 188t256.5 69q213 0 361 -151 q145 -151 145 -367q0 -217 -146.5 -368.5t-359.5 -151.5t-359.5 151.5t-146.5 368.5zM535 1669q0 -53 35.5 -90t88.5 -37t90 38t37 91q0 52 -36.5 87.5t-90.5 35.5t-89 -36t-35 -89zM913 1669q0 -52 37 -89.5t88 -37.5t89 38.5t38 90.5t-36 87.5t-89 35.5t-90 -36.5 t-37 -88.5z" />
<glyph unicode="&#xd7;" horiz-adv-x="1157" d="M98 430l131 -131l351 350l350 -350l129 131l-348 350l346 346l-129 131l-348 -350l-349 350l-131 -131l349 -346z" />
<glyph unicode="&#xd8;" horiz-adv-x="1720" d="M106 727q0 -209 100.5 -381t274.5 -266l-149 -320h205l116 250q99 -24 207 -24q157 0 297 56.5t240 154.5t158.5 236t58.5 294q0 195 -89.5 358.5t-246.5 262.5l145 313h-204l-111 -234q-118 39 -248 39q-157 0 -297 -57t-240 -154.5t-158.5 -235t-58.5 -292.5zM354 725 q0 217 146.5 368.5t359.5 151.5q80 0 154 -24l-434 -930q-105 73 -165.5 187.5t-60.5 246.5zM750 217l428 916q188 -156 188 -408q0 -142 -66.5 -261t-183 -188t-256.5 -69q-45 0 -110 10z" />
<glyph unicode="&#xd9;" horiz-adv-x="1572" d="M180 629q0 -152 45 -274t125.5 -202.5t191.5 -123.5t244 -43q272 0 439.5 170.5t167.5 472.5v803h-242v-793q0 -196 -98.5 -311t-266.5 -115q-166 0 -266 115q-98 113 -98 311v793h-242v-803zM510 1747l250 -197h209l-217 297z" />
<glyph unicode="&#xda;" horiz-adv-x="1572" d="M180 629q0 -152 45 -274t125.5 -202.5t191.5 -123.5t244 -43q272 0 439.5 170.5t167.5 472.5v803h-242v-793q0 -196 -98.5 -311t-266.5 -115q-166 0 -266 115q-98 113 -98 311v793h-242v-803zM643 1552h209l250 197l-242 100z" />
<glyph unicode="&#xdb;" horiz-adv-x="1572" d="M180 629q0 -152 45 -274t125.5 -202.5t191.5 -123.5t244 -43q272 0 439.5 170.5t167.5 472.5v803h-242v-793q0 -196 -98.5 -311t-266.5 -115q-166 0 -266 115q-98 113 -98 311v793h-242v-803zM438 1550h199l158 115l157 -115h199l-250 275h-213z" />
<glyph unicode="&#xdc;" horiz-adv-x="1572" d="M180 629q0 -152 45 -274t125.5 -202.5t191.5 -123.5t244 -43q272 0 439.5 170.5t167.5 472.5v803h-242v-793q0 -196 -98.5 -311t-266.5 -115q-166 0 -266 115q-98 113 -98 311v793h-242v-803zM475 1669q0 -53 36.5 -90t88.5 -37t89.5 38t37.5 91q0 52 -36 87.5t-89 35.5 t-90 -36.5t-37 -88.5zM854 1669q0 -53 37 -90t90 -37q52 0 88.5 38t36.5 91q0 52 -36 87.5t-89 35.5t-90 -36.5t-37 -88.5z" />
<glyph unicode="&#xdd;" horiz-adv-x="1277" d="M-16 1432l532 -867v-565h246v565l532 867h-264l-391 -652l-391 652h-264zM588 1520h209l250 196l-242 101z" />
<glyph unicode="&#xde;" horiz-adv-x="1404" d="M199 0h241v240h234q323 0 482 124t159 392q0 495 -645 495h-230v181h-241v-1432zM440 459v573h226q205 0 303 -63t98 -207q0 -152 -85.5 -227.5t-281.5 -75.5h-260z" />
<glyph unicode="&#xdf;" horiz-adv-x="1333" d="M166 0h242v954q0 194 65.5 287.5t216.5 93.5q111 0 168 -64t57 -163q0 -97 -73.5 -166t-216.5 -92v-191q24 3 71 3q141 0 221 -60t80 -178q0 -119 -79.5 -171t-239.5 -52h-45v-201h84q249 0 385.5 113.5t136.5 308.5q0 147 -78.5 249.5t-224.5 119.5q213 133 213 344 q0 142 -92 266q-51 70 -152.5 109.5t-245.5 39.5q-146 0 -258 -59q-81 -43 -149 -143q-45 -69 -72 -205q-14 -57 -14 -209v-934z" />
<glyph unicode="&#xe0;" horiz-adv-x="1202" d="M84 338q0 -159 110.5 -256.5t282.5 -97.5q230 0 363 161v-145h209v702q0 202 -118 303t-319 101q-248 0 -450 -158l102 -143q162 110 316 110q241 0 241 -217v-41h-297q-207 0 -323.5 -81t-116.5 -238zM313 342q0 156 248 156h258v-92q0 -101 -80 -164.5t-192 -63.5 q-111 0 -172.5 42.5t-61.5 121.5zM328 1425l250 -196h208l-217 297z" />
<glyph unicode="&#xe1;" horiz-adv-x="1202" d="M84 338q0 -159 110.5 -256.5t282.5 -97.5q230 0 363 161v-145h209v702q0 202 -118 303t-319 101q-248 0 -450 -158l102 -143q162 110 316 110q241 0 241 -217v-41h-297q-207 0 -323.5 -81t-116.5 -238zM313 342q0 156 248 156h258v-92q0 -101 -80 -164.5t-192 -63.5 q-111 0 -172.5 42.5t-61.5 121.5zM510 1229h209l250 196l-242 101z" />
<glyph unicode="&#xe2;" horiz-adv-x="1202" d="M84 338q0 -159 110.5 -256.5t282.5 -97.5q230 0 363 161v-145h209v702q0 202 -118 303t-319 101q-248 0 -450 -158l102 -143q162 110 316 110q241 0 241 -217v-41h-297q-207 0 -323.5 -81t-116.5 -238zM240 1229h198l158 114l158 -114h198l-250 274h-213zM313 342 q0 156 248 156h258v-92q0 -101 -80 -164.5t-192 -63.5q-111 0 -172.5 42.5t-61.5 121.5z" />
<glyph unicode="&#xe3;" horiz-adv-x="1202" d="M84 338q0 -159 110.5 -256.5t282.5 -97.5q230 0 363 161v-145h209v702q0 202 -118 303t-319 101q-248 0 -450 -158l102 -143q162 110 316 110q241 0 241 -217v-41h-297q-207 0 -323.5 -81t-116.5 -238zM256 1229h152q3 90 69 90q27 0 123 -47q94 -49 148 -49 q182 0 188 266h-154q0 -90 -61 -90q-31 0 -129 49q-100 47 -154 47q-85 0 -133.5 -73t-48.5 -193zM313 342q0 156 248 156h258v-92q0 -101 -80 -164.5t-192 -63.5q-111 0 -172.5 42.5t-61.5 121.5z" />
<glyph unicode="&#xe4;" horiz-adv-x="1202" d="M84 338q0 -159 110.5 -256.5t282.5 -97.5q230 0 363 161v-145h209v702q0 202 -118 303t-319 101q-248 0 -450 -158l102 -143q162 110 316 110q241 0 241 -217v-41h-297q-207 0 -323.5 -81t-116.5 -238zM285 1356q0 -53 37 -90q34 -37 88 -37t90.5 36.5t36.5 90.5 t-36.5 89.5t-90.5 35.5t-89.5 -35.5t-35.5 -89.5zM313 342q0 156 248 156h258v-92q0 -101 -80 -164.5t-192 -63.5q-111 0 -172.5 42.5t-61.5 121.5zM664 1356q0 -52 36.5 -89.5t87.5 -37.5q52 0 89.5 37t37.5 90q0 54 -35.5 89.5t-88.5 35.5t-90 -36.5t-37 -88.5z" />
<glyph unicode="&#xe5;" horiz-adv-x="1202" d="M84 338q0 -159 110.5 -256.5t282.5 -97.5q230 0 363 161v-145h209v702q0 202 -118 303t-319 101q-248 0 -450 -158l102 -143q162 110 316 110q241 0 241 -217v-41h-297q-207 0 -323.5 -81t-116.5 -238zM313 342q0 156 248 156h258v-92q0 -101 -80 -164.5t-192 -63.5 q-111 0 -172.5 42.5t-61.5 121.5zM381 1407q0 -86 66.5 -149.5t154.5 -63.5t155.5 63.5t67.5 149.5q0 88 -67 152q-66 63 -156 63q-88 0 -154.5 -64.5t-66.5 -150.5zM489 1409q0 50 32 81.5t83 31.5q49 0 80 -31.5t31 -81.5q0 -51 -31 -83t-80 -32q-51 0 -83 32t-32 83z" />
<glyph unicode="&#xe6;" horiz-adv-x="1949" d="M84 338q0 -157 119.5 -255.5t294.5 -98.5q273 0 436 196q150 -196 416 -196q264 0 440 182l-131 143q-108 -129 -291 -129q-132 0 -224 81.5t-93 209.5h813v131q0 231 -144 367.5t-372 136.5q-224 0 -373 -152q-112 152 -363 152q-248 0 -450 -158l102 -143 q162 110 316 110q241 0 241 -217v-49h-297q-210 0 -325 -77.5t-115 -233.5zM313 342q0 44 19 72q39 57 229 57h258v-65q0 -101 -80 -164.5t-192 -63.5q-111 0 -172.5 42.5t-61.5 121.5zM1053 649q10 118 97 189t208 71q120 0 194.5 -67.5t81.5 -192.5h-581z" />
<glyph unicode="&#xe7;" horiz-adv-x="1181" d="M96 553q0 -117 37.5 -218t103 -172.5t154.5 -117t193 -57.5l-68 -127q27 10 62 10q34 0 57.5 -25.5t23.5 -58.5q0 -34 -23 -57t-61 -23q-39 0 -79 21l-54 -117q71 -45 172 -45q95 0 159.5 57.5t64.5 136.5q0 144 -144 162l35 68q214 27 381 194l-135 148 q-136 -139 -289 -139t-256.5 104.5t-103.5 255.5q0 148 104 244t250 96q144 0 285 -123l135 166q-170 170 -416 170q-162 0 -296.5 -71t-213 -198t-78.5 -284z" />
<glyph unicode="&#xe8;" horiz-adv-x="1265" d="M96 547q0 -168 74.5 -297.5t199 -197.5t277.5 -68q283 0 459 182l-131 143q-108 -129 -311 -129q-86 0 -161 32.5t-123.5 93.5t-53.5 138h854v158q0 152 -72 268t-192.5 176t-268.5 60q-149 0 -274 -67.5t-201 -196.5t-76 -295zM326 625q0 126 97.5 205t229.5 79 q130 0 213.5 -75.5t83.5 -208.5h-624zM385 1425l250 -196h209l-217 297z" />
<glyph unicode="&#xe9;" horiz-adv-x="1265" d="M96 547q0 -168 74.5 -297.5t199 -197.5t277.5 -68q283 0 459 182l-131 143q-108 -129 -311 -129q-86 0 -161 32.5t-123.5 93.5t-53.5 138h854v158q0 152 -72 268t-192.5 176t-268.5 60q-149 0 -274 -67.5t-201 -196.5t-76 -295zM326 625q0 126 97.5 205t229.5 79 q130 0 213.5 -75.5t83.5 -208.5h-624zM561 1233h209l250 197l-242 100z" />
<glyph unicode="&#xea;" horiz-adv-x="1265" d="M96 547q0 -168 74.5 -297.5t199 -197.5t277.5 -68q283 0 459 182l-131 143q-108 -129 -311 -129q-86 0 -161 32.5t-123.5 93.5t-53.5 138h854v158q0 152 -72 268t-192.5 176t-268.5 60q-149 0 -274 -67.5t-201 -196.5t-76 -295zM293 1229h199l157 114l158 -114h199 l-250 274h-213zM326 625q0 126 97.5 205t229.5 79q130 0 213.5 -75.5t83.5 -208.5h-624z" />
<glyph unicode="&#xeb;" horiz-adv-x="1265" d="M96 547q0 -168 74.5 -297.5t199 -197.5t277.5 -68q283 0 459 182l-131 143q-108 -129 -311 -129q-86 0 -161 32.5t-123.5 93.5t-53.5 138h854v158q0 152 -72 268t-192.5 176t-268.5 60q-149 0 -274 -67.5t-201 -196.5t-76 -295zM326 625q0 126 97.5 205t229.5 79 q130 0 213.5 -75.5t83.5 -208.5h-624zM332 1356q0 -53 37 -90q34 -37 88 -37q53 0 90 36.5t37 90.5t-36 89.5t-89 35.5t-90 -36t-37 -89zM711 1356q0 -52 37.5 -89.5t89.5 -37.5q53 0 89 36.5t36 90.5t-36 89.5t-89 35.5t-90 -36.5t-37 -88.5z" />
<glyph unicode="&#xec;" d="M-49 1425l250 -196h209l-217 297zM166 0h229v1090h-229v-1090z" />
<glyph unicode="&#xed;" d="M166 0h229v1090h-229v-1090zM197 1229h192l250 186l-225 101z" />
<glyph unicode="&#xee;" d="M-66 1229h199l158 114l158 -114h198l-250 274h-213zM166 0h229v1090h-229v-1090z" />
<glyph unicode="&#xef;" d="M-16 1356q0 -54 36 -90q34 -37 89 -37q53 0 90 36.5t37 90.5t-36 89.5t-89 35.5t-90 -36t-37 -89zM166 0h229v1090h-229v-1090zM362 1356q0 -52 37 -89.5t90 -37.5t89 36.5t36 90.5t-36 89.5t-89 35.5t-90 -36.5t-37 -88.5z" />
<glyph unicode="&#xf0;" horiz-adv-x="1220" d="M102 475q0 -216 147 -353.5t376 -137.5q227 0 361 154.5t134 408.5q0 368 -360 758l180 116l-121 111l-174 -111q-83 76 -149 129l-195 -112q148 -124 150 -127l-193 -123l117 -111l190 121q178 -178 252 -303l-4 -4q-76 76 -221 76q-134 0 -246 -62.5t-178 -176 t-66 -253.5zM326 475q0 123 80 207t206 84q125 0 205 -84.5t80 -206.5t-80 -206.5t-205 -84.5q-126 0 -206 84t-80 207z" />
<glyph unicode="&#xf1;" horiz-adv-x="1323" d="M166 0h229v590q0 146 85 227.5t210 81.5q250 0 250 -301v-598h229v668q0 210 -111.5 324t-299.5 114q-113 0 -210.5 -57.5t-152.5 -157.5v199h-229v-1090zM338 1229h151q3 90 70 90q27 0 123 -47q94 -49 147 -49q183 0 189 266h-154q0 -90 -61 -90q-31 0 -129 49 q-100 47 -154 47q-85 0 -133.5 -73t-48.5 -193z" />
<glyph unicode="&#xf2;" horiz-adv-x="1335" d="M94 545q0 -155 74.5 -283.5t206.5 -203t293 -74.5q246 0 409 163q164 164 164 398q0 116 -44 219.5t-119.5 178.5t-182 119t-227.5 44q-161 0 -293 -74.5t-206.5 -203t-74.5 -283.5zM324 545q0 157 97 256.5t247 99.5t247 -99.5t97 -256.5t-97 -257t-247 -100 q-152 0 -246 101q-98 98 -98 256zM350 1425l250 -196h209l-217 297z" />
<glyph unicode="&#xf3;" horiz-adv-x="1335" d="M94 545q0 -155 74.5 -283.5t206.5 -203t293 -74.5q246 0 409 163q164 164 164 398q0 116 -44 219.5t-119.5 178.5t-182 119t-227.5 44q-161 0 -293 -74.5t-206.5 -203t-74.5 -283.5zM324 545q0 157 97 256.5t247 99.5t247 -99.5t97 -256.5t-97 -257t-247 -100 q-152 0 -246 101q-98 98 -98 256zM563 1229h209l250 196l-242 101z" />
<glyph unicode="&#xf4;" horiz-adv-x="1335" d="M94 545q0 -155 74.5 -283.5t206.5 -203t293 -74.5q246 0 409 163q164 164 164 398q0 116 -44 219.5t-119.5 178.5t-182 119t-227.5 44q-161 0 -293 -74.5t-206.5 -203t-74.5 -283.5zM313 1229h199l158 114l157 -114h199l-250 274h-213zM324 545q0 157 97 256.5t247 99.5 t247 -99.5t97 -256.5t-97 -257t-247 -100q-152 0 -246 101q-98 98 -98 256z" />
<glyph unicode="&#xf5;" horiz-adv-x="1335" d="M94 545q0 -155 74.5 -283.5t206.5 -203t293 -74.5q246 0 409 163q164 164 164 398q0 116 -44 219.5t-119.5 178.5t-182 119t-227.5 44q-161 0 -293 -74.5t-206.5 -203t-74.5 -283.5zM324 545q0 157 97 256.5t247 99.5t247 -99.5t97 -256.5t-97 -257t-247 -100 q-152 0 -246 101q-98 98 -98 256zM328 1229h151q3 90 70 90q27 0 123 -47q94 -49 147 -49q183 0 189 266h-154q0 -90 -61 -90q-31 0 -129 49q-100 47 -154 47q-85 0 -133.5 -73t-48.5 -193z" />
<glyph unicode="&#xf6;" horiz-adv-x="1335" d="M94 545q0 -155 74.5 -283.5t206.5 -203t293 -74.5q246 0 409 163q164 164 164 398q0 116 -44 219.5t-119.5 178.5t-182 119t-227.5 44q-161 0 -293 -74.5t-206.5 -203t-74.5 -283.5zM324 545q0 157 97 256.5t247 99.5t247 -99.5t97 -256.5t-97 -257t-247 -100 q-152 0 -246 101q-98 98 -98 256zM344 1356q0 -53 37 -90q34 -37 88 -37q53 0 90 36.5t37 90.5t-36 89.5t-89 35.5t-90 -36t-37 -89zM723 1356q0 -52 37.5 -89.5t89.5 -37.5q53 0 89 36.5t36 90.5t-36 89.5t-89 35.5t-90 -36.5t-37 -88.5z" />
<glyph unicode="&#xf7;" horiz-adv-x="1163" d="M98 696h967v193h-967v-193zM430 432q0 -63 45 -108q42 -45 107 -45q63 0 108 45t45 108t-45 107.5t-108 44.5t-107.5 -44.5t-44.5 -107.5zM430 1159q0 -63 45 -108q42 -45 107 -45q63 0 108 45t45 108t-45 107.5t-108 44.5t-107.5 -44.5t-44.5 -107.5z" />
<glyph unicode="&#xf8;" horiz-adv-x="1335" d="M94 545q0 -151 71.5 -278t196.5 -201l-131 -281h205l99 213q71 -14 133 -14q121 0 227.5 44t182 119t119.5 178.5t44 219.5q0 140 -62 260t-173 199l127 270h-205l-90 -193q-83 25 -170 25q-161 0 -293 -74.5t-206.5 -203t-74.5 -283.5zM324 532q0 168 96 268.5 t248 100.5q51 0 82 -8l-297 -635q-129 102 -129 274zM625 190l286 613q101 -94 101 -256q0 -159 -97 -259t-247 -100q-33 0 -43 2z" />
<glyph unicode="&#xf9;" horiz-adv-x="1323" d="M154 422q0 -210 111.5 -324t299.5 -114q113 0 210.5 57.5t152.5 157.5v-199h229v1090h-229v-590q0 -146 -85 -228t-210 -82q-250 0 -250 302v598h-229v-668zM346 1425l250 -196h209l-217 297z" />
<glyph unicode="&#xfa;" horiz-adv-x="1323" d="M154 422q0 -210 111.5 -324t299.5 -114q113 0 210.5 57.5t152.5 157.5v-199h229v1090h-229v-590q0 -146 -85 -228t-210 -82q-250 0 -250 302v598h-229v-668zM508 1233h209l250 197l-242 100z" />
<glyph unicode="&#xfb;" horiz-adv-x="1323" d="M154 422q0 -210 111.5 -324t299.5 -114q113 0 210.5 57.5t152.5 157.5v-199h229v1090h-229v-590q0 -146 -85 -228t-210 -82q-250 0 -250 302v598h-229v-668zM303 1229h199l157 114l158 -114h199l-250 274h-213z" />
<glyph unicode="&#xfc;" horiz-adv-x="1323" d="M154 422q0 -210 111.5 -324t299.5 -114q113 0 210.5 57.5t152.5 157.5v-199h229v1090h-229v-590q0 -146 -85 -228t-210 -82q-250 0 -250 302v598h-229v-668zM332 1356q0 -53 37 -90q34 -37 88 -37q53 0 90 36.5t37 90.5t-36 89.5t-89 35.5t-90 -36t-37 -89zM711 1356 q0 -52 37.5 -89.5t89.5 -37.5q53 0 89 36.5t36 90.5t-36 89.5t-89 35.5t-90 -36.5t-37 -88.5z" />
<glyph unicode="&#xfd;" horiz-adv-x="1175" d="M18 1090q441 -1094 441 -1121q0 -69 -49 -122.5t-123 -53.5q-79 0 -150 68l-104 -187q120 -108 270 -108q106 0 194.5 61.5t135.5 167.5l528 1295h-246l-325 -803l-326 803h-246zM471 1286h209l250 197l-242 100z" />
<glyph unicode="&#xfe;" horiz-adv-x="1376" d="M166 -397h229v547l15 -19q13 -16 41 -41q124 -106 292 -106q243 0 390 155.5t147 403.5q0 246 -148 404.5t-384 158.5q-121 0 -220 -57q-35 -21 -70 -49.5t-46 -41.5q-3 -4 -17 -18v580h-229v-1917zM391 545q0 150 89.5 255t226.5 105q138 0 232.5 -105.5t94.5 -252.5 t-95.5 -254t-231.5 -107t-226 104.5t-90 254.5z" />
<glyph unicode="&#xff;" horiz-adv-x="1175" d="M18 1090q441 -1094 441 -1121q0 -69 -49 -122.5t-123 -53.5q-79 0 -150 68l-104 -187q120 -108 270 -108q106 0 194.5 61.5t135.5 167.5l528 1295h-246l-325 -803l-326 803h-246zM283 1356q0 -54 36 -90q34 -37 89 -37q53 0 90 36.5t37 90.5t-36 89.5t-89 35.5t-90 -36 t-37 -89zM662 1356q0 -53 37 -90t89 -37q53 0 89 36.5t36 90.5t-36 89.5t-89 35.5t-89.5 -36.5t-36.5 -88.5z" />
<glyph unicode="&#x152;" horiz-adv-x="2183" d="M109 717q0 -202 96 -366.5t263 -257.5t370 -93h1235v227h-789v383h686v215h-686v379h764v228h-1210q-152 0 -287 -55t-232 -149.5t-153.5 -227.5t-56.5 -283zM371 717q0 209 141 356q142 148 348 148h182v-1010h-182q-134 0 -246.5 68t-177.5 184.5t-65 253.5z" />
<glyph unicode="&#x153;" horiz-adv-x="2183" d="M94 545q0 -155 74.5 -283.5t206.5 -203t293 -74.5q286 0 454 213q74 -102 191 -157.5t252 -55.5q282 0 458 182l-131 143q-108 -129 -311 -129q-86 0 -161 32.5t-123.5 93.5t-53.5 138h854v158q0 153 -71.5 268.5t-192.5 175.5t-272 60q-130 0 -247.5 -56.5 t-191.5 -158.5q-170 215 -454 215q-161 0 -293 -74.5t-206.5 -203t-74.5 -283.5zM324 545q0 157 97 256.5t247 99.5t247 -99.5t97 -256.5t-97 -257t-247 -100q-152 0 -246 101q-98 98 -98 256zM1243 625q0 126 98 205t230 79q130 0 213.5 -75.5t83.5 -208.5h-625z" />
<glyph unicode="&#x2c6;" horiz-adv-x="1380" d="M340 1229h199l157 114l158 -114h199l-250 274h-213z" />
<glyph unicode="&#x2dc;" horiz-adv-x="1062" d="M195 1520h151q3 90 70 90q27 0 123 -47q95 -50 147 -50q182 0 188 267h-153q0 -90 -62 -90q-31 0 -129 49q-100 47 -153 47q-85 0 -133.5 -73t-48.5 -193z" />
<glyph unicode="&#x2000;" horiz-adv-x="924" />
<glyph unicode="&#x2001;" horiz-adv-x="1849" />
<glyph unicode="&#x2002;" horiz-adv-x="924" />
<glyph unicode="&#x2003;" horiz-adv-x="1849" />
<glyph unicode="&#x2004;" horiz-adv-x="616" />
<glyph unicode="&#x2005;" horiz-adv-x="462" />
<glyph unicode="&#x2006;" horiz-adv-x="308" />
<glyph unicode="&#x2007;" horiz-adv-x="308" />
<glyph unicode="&#x2008;" horiz-adv-x="231" />
<glyph unicode="&#x2009;" horiz-adv-x="369" />
<glyph unicode="&#x200a;" horiz-adv-x="102" />
<glyph unicode="&#x2010;" horiz-adv-x="974" d="M147 504h680v215h-680v-215z" />
<glyph unicode="&#x2011;" horiz-adv-x="974" d="M147 504h680v215h-680v-215z" />
<glyph unicode="&#x2012;" horiz-adv-x="974" d="M147 504h680v215h-680v-215z" />
<glyph unicode="&#x2013;" horiz-adv-x="1101" d="M168 463h766v137h-766v-137z" />
<glyph unicode="&#x2014;" horiz-adv-x="1484" d="M168 465h1149v135h-1149v-135z" />
<glyph unicode="&#x2018;" horiz-adv-x="442" d="M72 1161q0 -56 37.5 -91.5t93.5 -35.5q57 0 93 36.5t36 98.5t-58 99l80 176h-125l-120 -174q-37 -52 -37 -109z" />
<glyph unicode="&#x2019;" horiz-adv-x="444" d="M72 1024h125l120 174q37 52 37 111q0 55 -37.5 90t-93.5 35q-57 0 -93 -36.5t-36 -99.5t56 -98z" />
<glyph unicode="&#x201a;" horiz-adv-x="444" d="M72 -166h125l120 174q37 52 37 111q0 55 -37.5 90t-93.5 35q-57 0 -93 -36.5t-36 -98.5q0 -64 56 -99z" />
<glyph unicode="&#x201c;" horiz-adv-x="757" d="M72 1161q0 -56 37.5 -91.5t93.5 -35.5q57 0 93 36.5t36 98.5t-58 99l80 176h-125l-120 -174q-37 -52 -37 -109zM385 1161q0 -56 37.5 -91.5t93.5 -35.5q57 0 93 36.5t36 98.5t-57 99l80 176h-125l-121 -174q-37 -52 -37 -109z" />
<glyph unicode="&#x201d;" horiz-adv-x="755" d="M72 1024h125l120 174q37 52 37 111q0 55 -37.5 90t-93.5 35q-57 0 -93 -36.5t-36 -99.5t56 -98zM383 1024h125l121 174q37 52 37 111q0 55 -37.5 90t-93.5 35q-57 0 -93 -36.5t-36 -99.5q0 -64 55 -98z" />
<glyph unicode="&#x201e;" horiz-adv-x="755" d="M72 -166h125l120 174q37 52 37 111q0 55 -37.5 90t-93.5 35q-57 0 -93 -36.5t-36 -98.5q0 -64 56 -99zM383 -166h125l121 174q37 52 37 111q0 55 -37.5 90t-93.5 35q-57 0 -93 -36.5t-36 -98.5q0 -65 55 -99z" />
<glyph unicode="&#x2022;" horiz-adv-x="876" d="M174 647q0 -108 78 -186t186 -78q109 0 186.5 77.5t77.5 186.5t-77.5 186.5t-186.5 77.5t-186.5 -77.5t-77.5 -186.5z" />
<glyph unicode="&#x2026;" horiz-adv-x="1429" d="M135 137q0 -63 45 -108q42 -45 107 -45q63 0 108 45t45 108t-45 107.5t-108 44.5t-107.5 -44.5t-44.5 -107.5zM563 137q0 -63 45 -108q42 -45 107 -45q63 0 108 45t45 108t-45 107.5t-108 44.5t-107.5 -44.5t-44.5 -107.5zM991 137q0 -63 45 -108q42 -45 107 -45 q63 0 108 45t45 108t-45 107.5t-108 44.5t-107.5 -44.5t-44.5 -107.5z" />
<glyph unicode="&#x202f;" horiz-adv-x="369" />
<glyph unicode="&#x2039;" horiz-adv-x="714" d="M115 492l243 -361h222l-236 361l236 360h-222z" />
<glyph unicode="&#x203a;" horiz-adv-x="714" d="M135 131h221l244 361l-244 360h-221l236 -360z" />
<glyph unicode="&#x205f;" horiz-adv-x="462" />
<glyph unicode="&#x20ac;" horiz-adv-x="1558" d="M106 459h224q72 -208 236.5 -329.5t377.5 -121.5q312 0 502 236l-146 176q-91 -94 -170 -134t-186 -40q-222 0 -334 213h471v176h-526q-6 47 -6 96q0 58 2 74h530v176h-487q47 114 141.5 177t214.5 63q118 0 199 -38.5t172 -135.5l145 184q-189 235 -516 235 q-219 0 -391 -132.5t-240 -352.5h-213v-176h181q-2 -14 -2 -72q0 -49 6 -98h-185v-176z" />
<glyph unicode="&#x2122;" horiz-adv-x="2048" d="M121 1303h254v-709h141v709h254v129h-649v-129zM928 594h141v653l291 -581h80l293 581v-653h141v838h-219l-254 -527l-252 527h-221v-838z" />
<glyph unicode="&#x25fc;" horiz-adv-x="1085" d="M0 0v1085h1085v-1085h-1085z" />
<glyph unicode="&#xfb01;" horiz-adv-x="1351" d="M82 905h137v-905h230v905h286v185h-286v90q0 79 41 124.5t114 45.5q72 0 141 -72l95 162q-120 108 -267 108q-151 0 -252.5 -103t-101.5 -271v-84h-137v-185zM928 1409q0 -59 43 -102t102 -43q60 0 103 42.5t43 102.5t-43 102.5t-103 42.5t-102.5 -42.5t-42.5 -102.5z M956 0h230v1090h-230v-1090z" />
<glyph unicode="&#xfb02;" horiz-adv-x="1351" d="M82 905h137v-905h230v905h286v185h-286v90q0 79 41 124.5t114 45.5q72 0 141 -72l95 162q-120 108 -267 108q-151 0 -252.5 -103t-101.5 -271v-84h-137v-185zM956 0h230v1520h-230v-1520z" />
</font>
</defs>
</svg>
